<svg id="Layer_1" data-name="Layer 1" xmlns="http://www.w3.org/2000/svg" viewBox="0 0 499.4012 290.0117"><defs><style>.cls-1{fill:#026434;}.cls-2{fill:#026534;}</style></defs><title>ictbijDSW.nl Logo</title><path class="cls-1" d="M80.0674,54.9969c-12.0477,0-26.755,1.24-26.9012,1.2527a1.7637,1.7637,0,0,0-1.6154,1.757v76.8507a1.7651,1.7651,0,0,0,1.6154,1.7585c.1462.0124,14.8535,1.25,26.9012,1.25,15.9989,0,33.1307-4.04,33.3656-11.5265.0016-.0171.0109-.1789,0-13.6661l.0047-16.8174-.0047-15.504c.0109-13.6366.0016-13.8109-.0016-13.8763-.2333-7.44-17.3651-11.4782-33.364-11.4782m-.4527,103.1405c-31.1279-.0031-53.0915-4.3634-58.5474-5.5648-.02-5.66.0545-28.2831.1106-45.3184L21.212,96.579l-.0341-10.2318c-.0546-17.2624-.1308-40.1939-.1106-45.8957,5.4575-1.2013,27.43-5.5679,58.5722-5.5679,23.9711.6816,40.7184,3.8188,51.1463,9.5922,8.7626,4.8505,12.8335,11.3895,12.8133,20.5771l.0513,15.3047a1.7955,1.7955,0,0,0,.09.5587l-.042,15.6518.042,15.5678a1.6373,1.6373,0,0,0-.09.5307l-.0513,15.3063c.02,9.1922-4.0507,15.73-12.8133,20.5817-10.4279,5.7733-27.1674,8.9075-51.1711,9.5828"/><path class="cls-1" d="M224.909,158.3964c-14.9065,0-31.5122-1.6526-47.57-3.2508q-4.4561-.4436-8.8467-.87l.084-14.3493c.1276-7.9209,8.0889-12.0743,15.8853-12.0743.2287,0,.459.0047.6893.011h.3221c3.2446,0,9.4039.6769,16.5373,1.4612,9.6124,1.06,20.5086,2.258,28.3609,2.258,6.3678,0,9.6824-.7532,11.0845-2.521,1.7522-2.2035,2.283-4.4273,1.5718-6.609-2.1724-6.6744-15.9383-10.4714-28.0855-13.8234-4.18-1.1531-8.1294-2.2424-10.6177-3.2305-.456-.18-1.0737-.4062-1.8238-.68-10.0061-3.6414-40.4616-14.7274-31.9417-45.4864,5.431-18.0235,18.0919-24.1189,50.158-24.1189,14.1144,0,31.3706,1.1189,53.21,2.5365l.1511,11.6463A13.2592,13.2592,0,0,1,270.263,58.83a15.1508,15.1508,0,0,1-10.9039,4.281c-1.25.0513-2.4586.0731-3.6989.0731-6.8627,0-14.589-.6955-22.0616-1.3694-6.7491-.6069-13.1248-1.1826-18.2678-1.1826-3.8436,0-12.8476,0-12.8476,5.974,0,13.6615,13.5058,17.4087,33.949,23.0809,0,0,1.287.3564,1.2917.3579,3.4034.915,33.3375,9.3525,36.6117,23.33,3.341,13.9136,2.1832,24.2-3.5388,31.4578-7.2952,9.2544-21.8764,13.5634-45.8817,13.5634Z"/><path class="cls-1" d="M423.4846,158.1958a61.0364,61.0364,0,0,1-31.61-8.5713c-1.3351-.7672-1.7849-1.024-2.423-1.024a2.11,2.11,0,0,0-.3127.0249,5.603,5.603,0,0,0-2.0291,1.0038c-3.1545,2.051-11.5282,7.4929-37.6933,7.4929-7.1055,0-25.0573-2.1755-31.9371-5.2754-4.9344-2.2284-8.4856-5.0264-10.8527-8.5527a24.2211,24.2211,0,0,1-3.6989-11.4268c-.196-2.1257-.1915-4.3417-.1867-6.483L302.63,53.2984c-.0045-4.2717.1387-7.5256,2.0387-10.4932a12.5925,12.5925,0,0,1,9.2716-5.5944,24.1664,24.1664,0,0,1,2.815-.1338c.5026,0,1.0068.0078,1.5094.0156.5167.0062,1.0319.014,1.5454.014l7.0728-.0094c2.0339,0,3.3628.0048,4.2311.0094v87.1541c0,4.7369,3.0143,8.3037,8.7208,10.31a43.4388,43.4388,0,0,0,14.4487,1.9686l.2865-.0016c10.02-.028,20.7264-3.9417,20.7264-14.8411v-84.35l7.1163-.1136c.84-.0125,1.6853-.0405,2.5335-.067,1.1609-.0373,2.3265-.0747,3.49-.0747,3.4454,0,7.093.2879,10.4154,2.3794a12.9346,12.9346,0,0,1,6.0753,9.1968A19.4979,19.4979,0,0,1,405.01,50.98v68.3729c0,2.8493,1.2014,17.0663,24.9094,17.0663a28.2861,28.2861,0,0,0,13.4452-3.1325c3.6974-2.0059,5.82-5.1026,5.82-8.5V37.1081h14.7a14.3212,14.3212,0,0,1,8.3192,2.1973A12.7181,12.7181,0,0,1,477.5782,48.4a42.8867,42.8867,0,0,1,.1181,5.6069c-.017.7625-.0341,1.5188-.0357,2.2672l-.109,69.9882c-.0078,5.9072-.5477,12.65-4.4941,17.8911-5.4574,6.8892-13.7315,9.5144-21.1,11.17a130.763,130.763,0,0,1-28.473,2.8727"/><path class="cls-2" d="M26.2119,200.8008a5.4686,5.4686,0,1,1,0-10.9336,5.4665,5.4665,0,0,1,5.6065,5.42A5.6048,5.6048,0,0,1,26.2119,200.8008Zm-4.205,54.1045V208.4629h8.41v46.4424Z"/><path class="cls-2" d="M63.4971,255.56c-11.12,0-20.3711-5.2334-20.3711-22.3331,0-14.9511,7.6626-25.5107,23.1743-25.5107a38.9461,38.9461,0,0,1,10.56,1.4951l-.9346,7.3819a28.0132,28.0132,0,0,0-9.9985-1.962c-9.3447,0-13.9234,6.9151-13.9234,17.4737,0,9.0644,2.99,16.26,13.2691,16.26a24.5683,24.5683,0,0,0,11.0268-2.5234l.6539,7.2891A38.5,38.5,0,0,1,63.4971,255.56Z"/><path class="cls-2" d="M104.0537,255.6523c-9.5312,0-12.4282-3.9238-12.4282-13.9228V215.0039H82.0943v-6.541h9.5312v-15.044l8.41-2.3369v17.3809h12.9887v6.541H100.0357v23.7353c0,7.6621,1.4018,9.7188,6.6347,9.7188a27.4329,27.4329,0,0,0,6.354-.8418v7.1025A45.5521,45.5521,0,0,1,104.0537,255.6523Z"/><path class="cls-2" d="M141.3394,255.56A58.6044,58.6044,0,0,1,125.36,253.69v-67h8.41v22.5205a42.855,42.855,0,0,1-.8413,8.69l.187.0928a15.8789,15.8789,0,0,1,15.3247-10.372c10.9332,0,17.1006,7.663,17.1006,21.8662C165.5415,245.748,156.2906,255.56,141.3394,255.56Zm5.14-41.0225c-8.41,0-12.7085,9.8115-12.7085,17.8476v15.419a26.9313,26.9313,0,0,0,8.2232,1.1211c8.8769,0,14.7641-5.3262,14.7641-18.6885C156.7578,220.2373,153.4873,214.5371,146.479,214.5371Z"/><path class="cls-2" d="M182.6446,200.8008a5.4686,5.4686,0,1,1,0-10.9336,5.4664,5.4664,0,0,1,5.6064,5.42A5.6047,5.6047,0,0,1,182.6446,200.8008ZM178.44,254.9053V208.4629h8.41v46.4424Z"/><path class="cls-2" d="M196.6621,278.6406a24.3607,24.3607,0,0,1-6.4477-.8418l.7475-7.3818a17.7909,17.7909,0,0,0,5.8872,1.1211c5.7935,0,7.4756-2.4287,7.4756-10.7461V208.4629h8.3164v51.582C212.6411,272.4726,208.81,278.6406,196.6621,278.6406Zm11.8672-77.84a5.4685,5.4685,0,1,1,0-10.9336,5.4442,5.4442,0,0,1,5.5132,5.42A5.5851,5.5851,0,0,1,208.5293,200.8008Z"/><path class="cls-2" d="M257.4951,254.9053a54.2815,54.2815,0,0,1,.7476-9.4375l-.1865-.0938a16.4635,16.4635,0,0,1-15.6055,10.3721c-11.4,0-17.1006-8.3164-17.1006-21.8662,0-16.2588,9.3448-26.0713,24.0157-26.0713a78.34,78.34,0,0,1,7.8491.4677V186.69h8.4106v68.2149Zm-.28-39.4336a31.9476,31.9476,0,0,0-8.2232-1.0284c-8.8769,0-14.7641,5.3262-14.7641,18.69,0,9.998,3.27,15.6982,10.2788,15.6982,8.41,0,12.7085-9.8115,12.7085-17.9414Z"/><path class="cls-2" d="M289.7359,255.7461a53.3467,53.3467,0,0,1-9.8116-.8408l.28-7.4756a34.7337,34.7337,0,0,0,10.1856,1.5888c6.167,0,10.372-2.8037,10.372-7.1025,0-10.3721-21.5849-4.0176-21.5849-20.37,0-7.85,6.4472-13.9238,18.5947-13.9238a47.7576,47.7576,0,0,1,8.8779.9345l-.1875,7.0088a31.5191,31.5191,0,0,0-9.3437-1.4951c-6.168,0-9.251,2.6162-9.251,6.6338,0,10.1855,21.6787,4.6728,21.6787,20.2783C309.5464,249.3916,302.0708,255.7461,289.7359,255.7461Z"/><path class="cls-2" d="M372.437,254.9053h-9.4384l-9.251-27.379c-.9346-2.8974-1.7754-5.98-2.6162-9.2509h-.0938c-.9345,4.1113-2.0556,7.7558-3.27,11.68l-7.7558,24.95h-9.3448L316.37,208.4629h9.2509l7.1026,24.7636c1.2138,4.2979,2.4287,8.503,3.3633,12.1475h.0937c.9346-4.1113,1.9619-8.13,3.1768-11.9609l7.9433-24.95h8.9707l8.0362,24.67c1.8691,5.793,2.71,8.7832,3.5507,12.335h.0938c.9346-3.9249,1.7754-7.2891,3.1767-11.961l7.4756-25.0439h8.877Z"/><path class="cls-2" d="M400.9419,249.9531a5.794,5.794,0,1,1-5.7939-5.7939A5.823,5.823,0,0,1,400.9419,249.9531Z"/><path class="cls-2" d="M444.2075,254.9053V224.9092c0-6.5411-1.7753-10.3721-7.9433-10.3721-7.6621,0-13.1748,7.7558-13.1748,18.0351v22.3331h-8.41V208.4629h8.1289a56.7746,56.7746,0,0,1-.747,9.7187l.1865.0938a16.9843,16.9843,0,0,1,16.3535-10.7471c10.6523,0,14.0166,6.6348,14.0166,14.8584v32.5186Z"/><path class="cls-2" d="M469.3462,254.9053V186.69h8.41v68.2149Z"/></svg>